<?xml version="1.0" encoding="UTF-8"?>
<svg xmlns="http://www.w3.org/2000/svg" version="1.1" width="412px" height="28px" xmlns:xlink="http://www.w3.org/1999/xlink">
	<path style="opacity:1; fill: #480e67;" d="M -0.5,-0.5 C 136.833,-0.5 274.167,-0.5 411.5,-0.5C 411.5,6.5 411.5,13.5 411.5,20.5C 406.285,20.1854 401.285,20.852 396.5,22.5C 393.231,21.4075 389.897,20.7408 386.5,20.5C 386.99,22.9484 386.157,24.615 384,25.5C 370.251,23.2062 356.417,21.5395 342.5,20.5C 340.05,20.7611 337.717,21.4277 335.5,22.5C 334.784,21.689 333.95,21.0223 333,20.5C 331.047,21.5447 329.047,21.5447 327,20.5C 322.461,23.2675 317.628,23.9341 312.5,22.5C 309,24.78 305.333,25.1133 301.5,23.5C 298.269,23.8546 295.102,24.5213 292,25.5C 288.686,24.0657 285.186,23.0657 281.5,22.5C 278.059,24.3533 274.726,26.02 271.5,27.5C 267.167,27.5 262.833,27.5 258.5,27.5C 254.304,26.3696 249.971,25.3696 245.5,24.5C 242.327,23.6317 239.327,23.6317 236.5,24.5C 231.067,24.3629 225.734,25.0296 220.5,26.5C 217.499,26.5617 215.166,25.395 213.5,23C 211.288,22.2109 209.288,22.3775 207.5,23.5C 206.5,24.8333 205.5,24.8333 204.5,23.5C 204.158,22.6618 203.492,22.3284 202.5,22.5C 202.44,21.9569 202.107,21.6236 201.5,21.5C 200.579,23.756 198.912,24.756 196.5,24.5C 194.708,24.634 193.042,24.3007 191.5,23.5C 179.833,22.1667 168.167,22.1667 156.5,23.5C 155.779,25.3818 154.779,25.7152 153.5,24.5C 153.134,23.3054 152.301,22.6387 151,22.5C 149.079,24.0028 146.912,24.6695 144.5,24.5C 140.785,24.577 137.119,24.2436 133.5,23.5C 131.876,23.6399 130.71,22.9733 130,21.5C 129.005,22.0659 128.172,22.7326 127.5,23.5C 127.167,23.5 126.833,23.5 126.5,23.5C 124.833,23.5 123.167,23.5 121.5,23.5C 119.302,23.8799 117.635,23.2132 116.5,21.5C 116.631,20.6236 116.298,19.9569 115.5,19.5C 113.24,20.9118 110.907,21.9118 108.5,22.5C 101.976,23.7324 95.309,23.7324 88.5,22.5C 86.4091,23.8654 84.0758,24.5321 81.5,24.5C 80.791,23.596 79.791,23.2627 78.5,23.5C 76.965,22.6457 75.6316,22.6457 74.5,23.5C 73.8333,23.5 73.5,23.8333 73.5,24.5C 73.1667,24.5 72.8333,24.5 72.5,24.5C 72.6716,23.5084 72.3382,22.8417 71.5,22.5C 70.8333,22.5 70.1667,22.5 69.5,22.5C 68.5798,21.9326 68.2465,22.5992 68.5,24.5C 66.5,24.5 64.5,24.5 62.5,24.5C 52.3485,24.4882 42.3485,23.4882 32.5,21.5C 34.2438,19.3943 33.7438,18.061 31,17.5C 29.9701,17.8361 29.4701,18.5028 29.5,19.5C 28.596,20.209 28.2627,21.209 28.5,22.5C 27.1667,22.5 26.5,23.1667 26.5,24.5C 25.6879,25.9931 24.3545,26.6598 22.5,26.5C 14.7797,24.5704 7.11308,23.9037 -0.5,24.5C -0.5,16.1667 -0.5,7.83333 -0.5,-0.5 Z M 219.5,18.5 C 224.767,19.5624 224.767,20.5624 219.5,21.5C 219.5,20.5 219.5,19.5 219.5,18.5 Z M 29.5,19.5 C 30.3635,18.537 31.0302,18.537 31.5,19.5C 30.7435,20.7733 30.0768,20.7733 29.5,19.5 Z"/>
</svg>
